<svg xmlns="http://www.w3.org/2000/svg" width="4758.02" height="5718.751" viewBox="0 0 4758.02 5718.751">
  <path id="Icon_awesome-trash-alt" data-name="Icon awesome-trash-alt" d="M339.859,5182.618c0,296.1,228.24,536.133,509.788,536.133H3908.373c281.548,0,509.788-240.035,509.788-536.133V1429.689H339.859Zm2888.8-2859.375c0-98.7,76.08-178.711,169.929-178.711s169.929,80.011,169.929,178.711V4825.2c0,98.7-76.08,178.711-169.929,178.711S3228.656,4923.9,3228.656,4825.2Zm-1019.576,0c0-98.7,76.08-178.711,169.929-178.711s169.929,80.011,169.929,178.711V4825.2c0,98.7-76.08,178.711-169.929,178.711S2209.08,4923.9,2209.08,4825.2Zm-1019.575,0c0-98.7,76.08-178.711,169.929-178.711s169.929,80.011,169.929,178.711V4825.2c0,98.7-76.08,178.711-169.929,178.711S1189.5,4923.9,1189.5,4825.2ZM4588.09,357.424H3313.621l-99.833-208.868C3170.651,57.474,3082.2-.071,2985.445,0H1771.512c-96.572-.39-184.857,57.314-227.28,148.553L1444.4,357.424H169.929C76.08,357.424,0,437.435,0,536.135V893.557c0,98.7,76.08,178.711,169.929,178.711H4588.09c93.85,0,169.93-80.012,169.93-178.711V536.135C4758.02,437.435,4681.939,357.424,4588.09,357.424Z" fill="#d3d3d3"/>
</svg>
